<svg width="25" height="24" viewBox="0 0 25 24" fill="none" xmlns="http://www.w3.org/2000/svg">
<path fill-rule="evenodd" clip-rule="evenodd" d="M12.333 3C7.36446 3 3.33301 7.03145 3.33301 12C3.33301 16.9686 7.36446 21 12.333 21C17.2918 21 21.333 16.9686 21.333 12C21.333 7.03145 17.2918 3 12.333 3ZM18.2777 7.14859C19.3514 8.45662 19.9957 10.1258 20.0152 11.9317C19.7614 11.8829 17.2234 11.3655 14.666 11.6876C14.6074 11.5607 14.5586 11.4241 14.5 11.2874C14.3438 10.9165 14.1682 10.5358 13.9924 10.1746C16.8232 9.0228 18.1117 7.36334 18.2777 7.14859ZM12.333 4.32755C14.2853 4.32755 16.0716 5.05966 17.4285 6.26031C17.2918 6.45553 16.1302 8.00759 13.397 9.03253C12.1378 6.71909 10.7419 4.82538 10.5272 4.53254C11.103 4.39588 11.7083 4.32755 12.333 4.32755ZM9.06297 5.04989C9.26795 5.32321 10.6345 7.22668 11.9133 9.49131C8.32108 10.448 5.14863 10.4284 4.80698 10.4284C5.30481 8.04664 6.91544 6.06507 9.06297 5.04989ZM4.64104 12.0098C4.64104 11.9317 4.64104 11.8536 4.64104 11.7755C4.97292 11.7852 8.70177 11.8341 12.538 10.6822C12.7625 11.1117 12.9675 11.551 13.1627 11.9902C13.0651 12.0195 12.9577 12.0488 12.8601 12.0781C8.897 13.3568 6.78854 16.8514 6.61284 17.1442C5.39266 15.7874 4.64104 13.9816 4.64104 12.0098ZM12.333 19.692C10.5564 19.692 8.91653 19.0868 7.61826 18.0716C7.75492 17.7885 9.31672 14.782 13.6508 13.269C13.6703 13.2592 13.6801 13.2592 13.6996 13.2495C14.7831 16.051 15.2224 18.4034 15.3395 19.077C14.4122 19.4772 13.397 19.692 12.333 19.692ZM16.6182 18.3742C16.5402 17.9056 16.1302 15.6605 15.1247 12.898C17.5358 12.5173 19.6443 13.1421 19.9079 13.23C19.576 15.3677 18.346 17.2126 16.6182 18.3742Z" fill="black"/>
</svg>
