<svg width="19" height="18" viewBox="0 0 19 18" fill="none" xmlns="http://www.w3.org/2000/svg">
<path d="M18.5 8.79C18.5 12.94 16.29 18 9.63 18C4.62461 18.0332 0.53852 14.0053 0.5 9C0.53852 3.99461 4.62461 -0.0332996 9.63 -3.96349e-05C11.7007 0.00764036 13.7085 0.71213 15.33 1.99996C15.442 2.09149 15.5109 2.22557 15.52 2.36996C15.5206 2.51605 15.463 2.65637 15.36 2.75996C14.709 3.35516 14.0882 3.98261 13.5 4.63996C13.3289 4.82826 13.0422 4.85432 12.84 4.69996C11.9161 4.01624 10.7888 3.66394 9.64 3.69996C6.68528 3.69996 4.29 6.09524 4.29 9.05C4.29 12.0047 6.68528 14.4 9.64 14.4C12.64 14.4 13.91 13.12 14.57 10.85H10C9.7239 10.85 9.5 10.6261 9.5 10.35V7.7C9.5 7.4238 9.7239 7.2 10 7.2H18C18.2302 7.1985 18.4244 7.3711 18.45 7.6C18.4871 7.9955 18.5038 8.3927 18.5 8.79Z" fill="black"/>
</svg>
